<?xml version="1.0" standalone="no"?>
<!DOCTYPE svg PUBLIC "-//W3C//DTD SVG 20010904//EN"
 "http://www.w3.org/TR/2001/REC-SVG-20010904/DTD/svg10.dtd">
<svg version="1.0" xmlns="http://www.w3.org/2000/svg"
 width="600.000000pt" height="600.000000pt" viewBox="0 0 600.000000 600.000000"
 preserveAspectRatio="xMidYMid meet">
<metadata>
Created by potrace 1.11, written by Peter Selinger 2001-2013
</metadata>
<g transform="translate(0.000000,600.000000) scale(0.100000,-0.100000)"
fill="#000000" stroke="none">
<path d="M2095 4873 c-26 -14 -35 -36 -154 -363 -40 -107 -76 -204 -81 -215
-7 -17 -106 -283 -230 -625 -61 -168 -311 -846 -317 -860 -3 -8 -7 -17 -7 -20
-1 -3 -7 -18 -13 -35 -84 -208 -403 -1102 -403 -1129 0 -34 15 -57 48 -75 9
-5 280 -105 602 -222 600 -218 633 -228 672 -192 10 8 34 59 54 112 20 53 49
130 64 171 16 41 43 115 61 163 22 62 40 94 58 105 23 15 78 17 541 18 559 1
556 1 583 -54 8 -15 51 -130 97 -257 49 -135 92 -240 105 -254 15 -15 34 -23
57 -23 31 0 223 65 523 177 143 53 419 154 553 201 137 48 138 49 170 77 26
24 29 72 6 132 -8 22 -19 51 -24 65 -4 14 -61 167 -125 340 -106 286 -262 710
-366 995 -22 61 -47 126 -54 145 -8 19 -93 251 -190 515 -97 264 -180 489
-185 500 -5 11 -52 139 -105 285 -112 305 -117 316 -147 326 -13 4 -416 8
-896 8 -677 1 -878 -2 -897 -11z m1002 -261 c14 -9 31 -47 72 -167 36 -102 38
-120 14 -131 -10 -4 -168 -9 -351 -10 -271 -1 -336 -4 -347 -15 -7 -8 -27 -52
-43 -99 -16 -47 -98 -272 -182 -500 -83 -228 -169 -462 -189 -520 -103 -285
-174 -480 -191 -525 -11 -27 -96 -261 -190 -520 -94 -258 -176 -473 -183 -477
-6 -4 -17 -8 -24 -8 -9 0 -181 60 -245 85 -11 4 -18 18 -18 32 0 20 110 336
165 473 7 19 52 139 98 265 47 127 205 556 352 955 148 399 280 759 295 800
95 261 125 337 138 352 14 16 48 18 416 18 221 0 406 -4 413 -8z m625 -9 c8
-10 35 -74 61 -143 25 -69 84 -228 131 -355 46 -126 177 -482 291 -790 113
-308 287 -779 386 -1046 98 -267 179 -495 179 -506 0 -11 -6 -25 -12 -31 -27
-20 -243 -93 -264 -88 -15 4 -28 23 -44 68 -21 60 -75 207 -160 438 -21 58
-96 263 -165 455 -70 193 -170 467 -222 610 -52 143 -122 334 -155 425 -88
244 -99 272 -114 310 -11 29 -130 356 -206 568 -20 58 -17 88 10 95 9 3 74 5
143 6 108 1 128 -1 141 -16z m-403 -582 c9 -14 62 -157 171 -456 34 -93 70
-192 80 -220 11 -27 35 -93 53 -145 19 -52 76 -207 125 -343 73 -200 89 -254
82 -273 -11 -27 -3 -26 -168 -26 -68 0 -127 4 -132 8 -8 8 -42 100 -175 459
-18 50 -67 185 -110 300 -42 116 -82 226 -90 245 -7 19 -24 62 -36 95 -13 33
-27 66 -32 73 -7 9 -67 12 -241 12 -167 0 -235 3 -244 12 -18 18 -15 45 14
123 43 118 56 144 73 147 9 2 152 3 319 3 242 0 305 -3 311 -14z m-552 -553
c19 -15 13 -53 -20 -139 -14 -35 -68 -183 -122 -329 -53 -146 -119 -323 -145
-395 -27 -71 -130 -353 -230 -625 -100 -272 -186 -502 -191 -511 -5 -9 -15
-19 -22 -22 -11 -4 -237 66 -241 75 -1 2 -7 10 -14 19 -11 14 42 168 329 955
187 517 347 949 355 961 11 18 25 23 71 25 105 5 215 -1 230 -14z m268 -358
c8 -14 32 -74 53 -135 22 -60 61 -166 86 -233 25 -68 46 -132 46 -142 0 -40
-28 -45 -228 -44 -197 1 -222 6 -222 43 0 29 183 516 199 529 23 18 50 11 66
-18z m1051 -1183 c91 -251 129 -368 124 -382 -5 -14 -40 -32 -125 -62 -133
-49 -144 -47 -169 19 -9 24 -45 124 -81 223 -80 218 -91 245 -107 246 -7 0
-267 2 -578 3 -311 2 -568 4 -572 4 -4 1 -12 11 -18 21 -8 16 0 46 35 142 24
67 50 128 56 135 9 12 122 14 658 14 l646 0 131 -363z"/>
</g>
</svg>
